<?xml version="1.0" encoding="UTF-8"?>
<svg id="favicon" xmlns="http://www.w3.org/2000/svg" viewBox="0 0 75 75">
  <defs>
    <style>
      .cls-1 {
        fill: #fff;
      }

      .cls-2 {
        fill: #3d6369;
      }
    </style>
  </defs>
  <rect class="cls-2" width="75" height="75" rx="17.21" ry="17.21"/>
  <g id="rtdHW8">
    <g>
      <path class="cls-1" d="M44.92,39.06c.03,4.11-2.2,8.99-6.19,13.18-.64,.67-1.05,.54-1.63-.05-4.47-4.6-6.62-10.05-6.09-16.47,.51-6.14,2.92-11.6,6.19-16.72,.29-.46,.64-1.37,1.3-.34,3.66,5.69,6.34,11.73,6.41,20.41Z"/>
      <path class="cls-1" d="M33.97,52.72c-4.15,.1-8.29,.86-12.26-1.06-3.51-1.69-6.41-4.07-9-6.9-2.29-2.51-4.24-5.27-5.81-8.28-.66-1.27-.53-1.45,.88-1.52,3.44-.16,6.86-.07,10.26,.54,.82,.15,1.46,.34,1.75,1.34,2.14,7.18,6.28,12.65,13.44,15.48,.26,.1,.49,.26,.73,.39Z"/>
      <path class="cls-1" d="M41.91,50.89c1.28-2.15,2.54-4.27,3.3-6.64,1.46-4.54,1.41-9.1,.21-13.66-.27-1.02-.1-1.67,.72-2.35,2.76-2.3,5.76-4.23,8.96-5.84,.57-.29,1.15-.65,1.2,.51,.33,8.1-.91,15.79-6.09,22.37-2.13,2.71-4.95,4.53-8.3,5.62Z"/>
      <path class="cls-1" d="M33.76,50.94c-3.85-1.45-6.69-3.67-8.89-6.68-3.09-4.23-4.44-9.1-5.09-14.22-.3-2.32-.32-4.65-.25-6.99,.02-.79,.18-1.18,1.1-.72,3.34,1.67,6.47,3.64,9.29,6.11,.66,.58,.86,1.08,.63,1.97-1.82,6.96-1.25,13.59,2.92,19.68,.1,.14,.12,.34,.29,.86Z"/>
      <path class="cls-1" d="M41.79,53c.17-.52,.54-.57,.82-.68,6.9-2.7,11.05-7.89,13.24-14.78,.43-1.36,1.03-2,2.49-2.19,3.23-.44,6.45-.53,9.69-.38,.74,.03,1.41,.16,.85,1.18-3.69,6.6-8.17,12.4-15.3,15.65-2.23,1.02-4.54,1.32-6.96,1.22-1.59-.07-3.19-.01-4.84-.01Z"/>
      <path class="cls-1" d="M48.89,23.82c-.04,.27-.07,.51-.27,.68-1.19,.96-2.38,1.91-3.58,2.86-.15,.12-.32,.15-.51,0-.85-.61-1.16-3.3-.42-4.08,.89-.94,1.81-1.84,2.71-2.76,.55-.56,.91-.62,1.14,.29,.25,1.01,.62,2,.94,3Z"/>
      <path class="cls-1" d="M29.18,20.19c.1,.09,.28,.24,.45,.4,.42,.39,.84,.77,1.24,1.18,2.15,2.15,2.19,2.56,.73,5.26-.31,.57-.54,.55-.96,.22-.93-.74-1.86-1.48-2.79-2.22-.34-.27-.44-.6-.32-1.01,.35-1.13,.71-2.27,1.07-3.4,.07-.23,.15-.46,.57-.42Z"/>
    </g>
  </g>
</svg>