<?xml version="1.0" encoding="UTF-8"?>
<svg id="Livello_1" data-name="Livello 1" xmlns="http://www.w3.org/2000/svg" viewBox="0 0 75 75">
  <defs>
    <style>
      .cls-1 {
        fill: #3d6369;
      }
    </style>
  </defs>
  <g id="rtdHW8">
    <g>
      <path class="cls-1" d="M45.47,41.37c.04,4.61-2.47,10.08-6.94,14.77-.71,.75-1.18,.6-1.82-.06-5.01-5.15-7.42-11.26-6.83-18.47,.57-6.89,3.28-13,6.94-18.74,.33-.52,.72-1.53,1.45-.38,4.11,6.38,7.11,13.15,7.18,22.88Z"/>
      <path class="cls-1" d="M33.2,56.68c-4.65,.11-9.29,.96-13.74-1.19-3.93-1.9-7.19-4.56-10.09-7.74-2.57-2.81-4.75-5.91-6.52-9.28-.74-1.42-.59-1.63,.98-1.7,3.85-.18,7.7-.08,11.5,.61,.91,.17,1.63,.38,1.97,1.5,2.39,8.05,7.04,14.18,15.07,17.36,.29,.11,.55,.29,.82,.44Z"/>
      <path class="cls-1" d="M42.09,54.63c1.44-2.41,2.84-4.79,3.7-7.45,1.63-5.09,1.59-10.2,.23-15.32-.3-1.14-.11-1.87,.8-2.63,3.1-2.58,6.45-4.74,10.05-6.54,.64-.32,1.29-.73,1.35,.57,.37,9.08-1.02,17.7-6.83,25.08-2.39,3.04-5.55,5.08-9.3,6.3Z"/>
      <path class="cls-1" d="M32.96,54.69c-4.31-1.63-7.5-4.11-9.97-7.49-3.47-4.74-4.97-10.21-5.71-15.94-.33-2.61-.36-5.21-.29-7.83,.02-.88,.2-1.32,1.24-.8,3.74,1.87,7.25,4.08,10.41,6.84,.74,.65,.96,1.22,.71,2.2-2.04,7.81-1.4,15.24,3.28,22.06,.11,.16,.13,.38,.33,.96Z"/>
      <path class="cls-1" d="M41.96,57c.19-.59,.61-.64,.92-.76,7.73-3.03,12.39-8.85,14.85-16.57,.49-1.53,1.16-2.24,2.79-2.46,3.62-.49,7.23-.59,10.87-.43,.82,.04,1.59,.18,.95,1.32-4.13,7.4-9.16,13.9-17.15,17.54-2.51,1.14-5.09,1.48-7.8,1.37-1.78-.07-3.57-.01-5.43-.01Z"/>
      <path class="cls-1" d="M49.92,24.28c-.04,.3-.07,.58-.3,.76-1.33,1.07-2.67,2.14-4.02,3.2-.17,.13-.36,.17-.57,.01-.96-.69-1.3-3.7-.47-4.57,.99-1.05,2.02-2.06,3.04-3.09,.62-.63,1.02-.69,1.28,.33,.28,1.14,.69,2.24,1.05,3.36Z"/>
      <path class="cls-1" d="M27.83,20.21c.12,.1,.31,.27,.5,.45,.47,.44,.94,.87,1.39,1.32,2.42,2.41,2.45,2.87,.82,5.89-.34,.63-.6,.62-1.08,.24-1.04-.83-2.08-1.66-3.13-2.49-.38-.3-.5-.68-.35-1.13,.4-1.27,.8-2.54,1.2-3.82,.08-.26,.17-.52,.64-.47Z"/>
    </g>
  </g>
</svg>